<svg xmlns="http://www.w3.org/2000/svg" viewBox="0 0 32 32">
  <path d="M15.6 4.8c-.665 0-1.2.535-1.2 1.2 0 .665.535 1.2 1.2 1.2h1.285l1.73 3.2h-7.47l-1.37-1.9C9.55 8.185 9.185 8 8.8 8H6c-.665 0-1.2.535-1.2 1.2 0 .665.535 1.2 1.2 1.2h2.185l1.105 1.535-1.33 2.655a6.44 6.44 0 0 0-1.56-.19A6.4 6.4 0 0 0 0 20.8a6.4 6.4 0 0 0 12.75.8h2.45c.425 0 .815-.225 1.035-.59l4.24-7.175 1.085 2.005A6.4 6.4 0 0 0 25.6 27.2a6.4 6.4 0 0 0 6.4-6.4 6.4 6.4 0 0 0-8.335-6.1L18.77 5.64c-.28-.52-.82-.84-1.41-.84H15.6Zm7.33 13.585 1.615 2.985c.315.585 1.045.8 1.625.485.58-.315.8-1.045.485-1.625l-1.615-2.985A3.598 3.598 0 0 1 29.2 20.8c0 1.99-1.61 3.6-3.6 3.6S22 22.79 22 20.8c0-.93.35-1.775.93-2.415ZM6.66 21.6h3.25a3.602 3.602 0 0 1-3.51 2.8c-1.99 0-3.6-1.61-3.6-3.6a3.598 3.598 0 0 1 3.855-3.59l-1.21 2.425c-.45.905.205 1.97 1.215 1.97V21.6Zm1.685-2.4 2.535-5.065 3.645 5.06-.005.005H8.34h.005Zm4.53-6.4h5.42l-2.445 4.14-2.98-4.14h.005Z" fill="currentColor"/>
</svg>
