<svg xmlns="http://www.w3.org/2000/svg" viewBox="0 0 32 32">
  <path d="M14.857 1.143v11.429c0 0.727-0.211 1.387-0.634 1.982s-0.973 1.012-1.651 1.25v13.911c0 0.619-0.226 1.154-0.679 1.607s-0.989 0.679-1.608 0.679h-2.285c-0.619 0-1.155-0.226-1.607-0.679s-0.679-0.988-0.679-1.607v-13.911c-0.679-0.238-1.229-0.655-1.652-1.25s-0.634-1.256-0.634-1.982v-11.429c0-0.309 0.113-0.577 0.339-0.803s0.494-0.339 0.804-0.339c0.309 0 0.577 0.113 0.803 0.339s0.339 0.494 0.339 0.803v7.429c0 0.31 0.113 0.577 0.339 0.803s0.494 0.339 0.803 0.339 0.577-0.113 0.803-0.339c0.227-0.226 0.34-0.493 0.34-0.803v-7.429c0-0.309 0.113-0.577 0.339-0.803s0.494-0.339 0.803-0.339c0.309 0 0.577 0.113 0.803 0.339s0.339 0.494 0.339 0.803v7.429c0 0.31 0.113 0.577 0.339 0.803s0.494 0.339 0.803 0.339 0.577-0.113 0.803-0.339c0.226-0.226 0.339-0.494 0.339-0.803v-7.429c0-0.309 0.113-0.577 0.339-0.803s0.495-0.339 0.804-0.339c0.309 0 0.577 0.113 0.803 0.339s0.34 0.494 0.34 0.803zM28.571 1.143v28.572c0 0.619-0.226 1.154-0.679 1.607s-0.988 0.679-1.607 0.679h-2.285c-0.619 0-1.155-0.226-1.607-0.679s-0.679-0.988-0.679-1.607v-9.143h-4c-0.155 0-0.289-0.056-0.402-0.169s-0.169-0.247-0.169-0.402v-14.285c0-1.572 0.559-2.917 1.679-4.036s2.464-1.679 4.036-1.679h4.571c0.309 0 0.577 0.113 0.803 0.339s0.339 0.494 0.339 0.803z" fill="currentColor"/>
</svg>
