<svg xmlns="http://www.w3.org/2000/svg" viewBox="0 0 32 32">
  <path d="M19.999 11.429h9.715v18.857c0 0.476-0.167 0.881-0.5 1.214s-0.738 0.5-1.215 0.5h-23.999c-0.477 0-0.881-0.167-1.215-0.5s-0.5-0.738-0.5-1.214v-28.571c0-0.477 0.167-0.881 0.5-1.215s0.738-0.5 1.215-0.5h14.285v9.715c0 0.476 0.167 0.881 0.5 1.214 0.333 0.334 0.739 0.5 1.214 0.5zM22.857 15.429v-1.143c0-0.167-0.053-0.303-0.16-0.411s-0.245-0.16-0.411-0.16h-12.571c-0.167 0-0.304 0.053-0.411 0.16-0.107 0.108-0.161 0.245-0.161 0.411v1.143c0 0.167 0.054 0.304 0.161 0.411s0.243 0.161 0.411 0.161h12.571c0.167 0 0.304-0.053 0.411-0.16s0.16-0.244 0.16-0.411zM22.857 20v-1.142c0-0.167-0.053-0.304-0.16-0.411s-0.245-0.161-0.411-0.161h-12.571c-0.167 0-0.304 0.054-0.411 0.161s-0.161 0.244-0.161 0.411v1.142c0 0.167 0.054 0.304 0.161 0.411s0.244 0.161 0.411 0.161h12.571c0.167 0 0.304-0.054 0.411-0.161s0.16-0.243 0.16-0.411zM22.857 24.572v-1.143c0-0.167-0.053-0.304-0.16-0.411s-0.245-0.16-0.411-0.16h-12.571c-0.167 0-0.304 0.053-0.411 0.16s-0.161 0.245-0.161 0.411v1.143c0 0.167 0.054 0.303 0.161 0.411s0.244 0.16 0.411 0.16h12.571c0.167 0 0.304-0.053 0.411-0.16 0.107-0.108 0.16-0.245 0.16-0.411zM28.499 8.5c0.167 0.167 0.333 0.381 0.5 0.643h-8.428v-8.428c0.262 0.167 0.476 0.333 0.643 0.5l7.285 7.285z" fill="currentColor"/>
</svg>
