<svg xmlns="http://www.w3.org/2000/svg" viewBox="0 0 32 32">
  <path d="M27.673 2.229v1.601h2.725v24.338l-2.971-0.002-5.615-4.121c1.169-0.767 1.998-1.796 2.401-3.023 1.226-3.732-1.927-8.16-7.091-10.16l2.441-7.363-1.497-0.443c-5.367-1.483-10.565 0.21-11.795 3.957-1.227 3.733 1.927 8.161 7.093 10.16l-4.141 12.597h1.739l1.519-4.775c1.276 0.348 2.559 0.533 3.795 0.533 1.137 0 2.236-0.149 3.253-0.446 0.505-0.148 0.971-0.336 1.408-0.547l5.941 4.413c0 0.007 1.009 0.822 1.009 0.822h4.113v-27.541h-4.327zM6.903 7.221c0.84-2.555 3.77-4.045 7.301-4.045 1.151 0 2.366 0.168 3.593 0.499l-4.226 12.863c-4.819-1.876-7.781-5.929-6.668-9.317zM19.341 24.443c-1.998 0.584-4.333 0.548-6.654-0.079l4.226-12.865c4.818 1.876 7.78 5.929 6.667 9.317-0.561 1.703-2.066 2.991-4.239 3.627zM4.327 3.831v-1.601h-4.327v27.541h4.327v-1.601h-2.725v-24.339z" fill="currentColor"/>
</svg>
