<svg xmlns="http://www.w3.org/2000/svg" viewBox="0 0 32 32">
  <path d="M26.667 10.667c0 1.514-0.229 2.757-0.687 3.729l-7.583 16.125c-0.223 0.459-0.552 0.82-0.989 1.083s-0.907 0.396-1.407 0.396c-0.5 0-0.969-0.133-1.407-0.396s-0.761-0.625-0.969-1.083l-7.604-16.125c-0.458-0.971-0.687-2.215-0.687-3.729 0-2.945 1.042-5.459 3.125-7.541 2.083-2.084 4.597-3.125 7.541-3.125s5.458 1.041 7.541 3.125c2.084 2.083 3.125 4.597 3.125 7.541zM19.771 14.437c1.042-1.042 1.563-2.299 1.563-3.771s-0.521-2.729-1.563-3.771c-1.041-1.042-2.299-1.563-3.771-1.563s-2.729 0.521-3.771 1.562c-1.042 1.042-1.563 2.299-1.563 3.771s0.521 2.729 1.563 3.771c1.041 1.041 2.298 1.563 3.771 1.563s2.729-0.521 3.771-1.563z" fill="currentColor"/>
</svg>
