<svg xmlns="http://www.w3.org/2000/svg" viewBox="0 0 32 32">
  <path d="M30.769 1.846v21.539c0 0.641-0.218 1.211-0.654 1.712s-0.987 0.888-1.654 1.163c-0.667 0.276-1.33 0.481-1.991 0.615s-1.279 0.202-1.856 0.202c-0.577 0-1.195-0.067-1.856-0.202s-1.324-0.339-1.991-0.615c-0.667-0.275-1.218-0.663-1.654-1.163s-0.654-1.071-0.654-1.712c0-0.641 0.218-1.211 0.654-1.711s0.987-0.888 1.654-1.164c0.667-0.275 1.33-0.481 1.991-0.615s1.279-0.202 1.856-0.202c1.346 0 2.577 0.25 3.693 0.75v-10.327l-14.769 4.558v13.635c0 0.641-0.218 1.211-0.654 1.712s-0.987 0.887-1.654 1.163c-0.667 0.275-1.33 0.481-1.991 0.615s-1.279 0.201-1.855 0.201-1.195-0.067-1.856-0.202c-0.661-0.135-1.324-0.34-1.991-0.615s-1.218-0.663-1.654-1.163-0.654-1.071-0.654-1.712 0.218-1.211 0.654-1.711c0.436-0.5 0.987-0.888 1.654-1.163s1.33-0.481 1.991-0.616c0.66-0.135 1.279-0.202 1.856-0.202 1.346 0 2.577 0.25 3.693 0.751v-18.597c0-0.397 0.121-0.759 0.365-1.087 0.243-0.327 0.557-0.554 0.942-0.682l16-4.923c0.154-0.051 0.333-0.077 0.539-0.077 0.513 0 0.949 0.179 1.308 0.539 0.358 0.359 0.538 0.795 0.538 1.307z" fill="currentColor"/>
</svg>
