<svg xmlns="http://www.w3.org/2000/svg" viewBox="0 0 32 32">
  <path d="M26.924 14.547l-6.66-1.697c-1.415-0.365-2.717-1.061-3.797-2.032-0.008-0.008-0.015-0.011-0.023-0.019-0.993-0.892-1.678-1.43-2.024-2.713l-6.563 1.411c-0.324 0.098-0.67-0.079-0.771-0.403 0 0 0-0.004 0-0.004l-0.5-1.562c-0.102-0.32 0.083-0.662 0.406-0.764 0 0 0.004 0 0.004 0l6.747-1.633c-0.188-0.817-0.267-2.122-0.267-2.961-0.008-1.2-0.993-2.167-2.205-2.171h-7.067c-1.208 0.008-2.186 0.975-2.194 2.167v14.995c-0.008 2.852 2.325 5.166 5.208 5.178h18.702c2.209 0.038 4.030-1.701 4.068-3.883 0.034-1.851-1.238-3.477-3.063-3.91zM29.309 25.434c-0.76-1.182-2.073-1.908-3.492-1.927-1.682-0.034-3.225 0.933-3.906 2.453l-2.149-0.034c-1.065-2.043-3.605-2.845-5.671-1.795-0.741 0.376-1.351 0.96-1.754 1.678l-2.344-0.038c-1.069-2.043-3.609-2.845-5.678-1.791s-2.879 3.564-1.814 5.611c1.069 2.043 3.609 2.845 5.678 1.791 0.738-0.376 1.347-0.96 1.75-1.678l2.325 0.038c1.065 2.043 3.605 2.845 5.671 1.795 0.741-0.376 1.351-0.96 1.754-1.678l2.525 0.038c1.249 1.938 3.849 2.51 5.814 1.279 1.96-1.234 2.54-3.804 1.291-5.742zM25.407 28.256c0 0.241-0.199 0.44-0.444 0.44h-17.656c-0.245 0-0.444-0.196-0.444-0.44v-0.613c0-0.241 0.199-0.44 0.444-0.44h17.656c0.245 0 0.444 0.196 0.444 0.44v0.613z" fill="currentColor"/>
</svg>
