<svg xmlns="http://www.w3.org/2000/svg" viewBox="0 0 32 32">
  <path d="M32 10.333c0 0.227-0.102 0.379-0.305 0.458l-15.555 5.195c-0.037 0.009-0.084 0.014-0.139 0.014s-0.102-0.005-0.139-0.014l-9.055-3.040c-0.398 0.335-0.727 0.883-0.986 1.645s-0.417 1.641-0.472 2.634c0.583 0.354 0.875 0.89 0.875 1.608 0 0.679-0.269 1.205-0.805 1.579l0.805 6.389c0.019 0.137-0.019 0.26-0.111 0.369-0.083 0.109-0.195 0.163-0.333 0.163h-2.667c-0.139 0-0.25-0.054-0.333-0.163-0.093-0.109-0.13-0.231-0.111-0.369l0.806-6.389c-0.537-0.374-0.806-0.901-0.806-1.579 0-0.718 0.301-1.264 0.903-1.638 0.102-2.036 0.555-3.66 1.361-4.87l-4.625-1.535c-0.203-0.079-0.305-0.231-0.305-0.457s0.102-0.378 0.305-0.457l15.555-5.195c0.037-0.009 0.084-0.015 0.139-0.015s0.102 0.005 0.139 0.015l15.555 5.195c0.204 0.079 0.306 0.231 0.306 0.457zM24.639 15.115l0.25 4.663c0.037 0.679-0.343 1.309-1.139 1.889s-1.884 1.040-3.263 1.379c-1.38 0.339-2.875 0.509-4.486 0.509s-3.107-0.17-4.486-0.509c-1.379-0.339-2.467-0.799-3.264-1.379s-1.176-1.211-1.139-1.889l0.25-4.663 7.972 2.671c0.203 0.069 0.425 0.103 0.667 0.103s0.463-0.034 0.667-0.103l7.972-2.671z" fill="currentColor"/>
</svg>
