<svg xmlns="http://www.w3.org/2000/svg" viewBox="0 0 32 32">
  <path d="M27.314 4.686c-3.221-3.221-7.475-4.783-11.697-4.681l6.52 6.517c4.283 4.315 4.275 11.285-0.027 15.587s-11.274 4.313-15.587 0.025v0.002l-6.519-6.519c-0.099 4.22 1.461 8.476 4.681 11.697 6.248 6.248 16.381 6.248 22.628 0 6.249-6.251 6.249-16.381 0.001-22.629zM8.252 20.395c1.621 1.613 3.775 2.498 6.064 2.496 2.287-0.004 4.44-0.897 6.057-2.515 1.619-1.617 2.511-3.77 2.515-6.058s-0.881-4.443-2.494-6.064l-7.871-7.874c-2.873 0.635-5.603 2.070-7.837 4.307-2.233 2.234-3.67 4.963-4.305 7.837l7.871 7.872z" fill="currentColor"/>
</svg>
