<?xml version="1.0" standalone="no"?>
<!DOCTYPE svg PUBLIC "-//W3C//DTD SVG 20010904//EN"
 "http://www.w3.org/TR/2001/REC-SVG-20010904/DTD/svg10.dtd">
<svg version="1.0" xmlns="http://www.w3.org/2000/svg"
 width="850.000000pt" height="850.000000pt" viewBox="0 0 850.000000 850.000000"
 preserveAspectRatio="xMidYMid meet">
<metadata>
Created by potrace 1.11, written by Peter Selinger 2001-2013
</metadata>
<g transform="translate(0.000000,850.000000) scale(0.100000,-0.100000)"
fill="#000000" stroke="none">
<path d="M4 7901 c-2 -2 -4 -1651 -4 -3663 l0 -3658 575 0 575 0 0 215 0 215
-360 0 -360 0 0 33 c-1 42 -1 6236 0 6347 l0 85 360 0 360 0 0 212 c0 163 -3
213 -12 214 -49 3 -1131 3 -1134 0z"/>
<path d="M7359 7896 c-15 -16 -12 -416 4 -417 6 -1 163 -3 347 -4 184 -1 342
-3 351 -4 14 -1 16 -291 16 -3231 l0 -3230 -394 0 -393 0 -228 167 c-125 91
-263 193 -307 225 -44 33 -89 66 -100 74 -11 8 -78 57 -150 110 -71 53 -168
124 -215 158 -188 138 -427 313 -457 335 l-33 22 98 74 c205 154 365 346 465
555 43 92 91 219 101 270 2 14 9 47 16 75 15 66 24 171 24 275 0 85 -11 229
-19 252 -2 7 -7 31 -10 53 -21 144 -120 399 -232 600 -123 219 -370 512 -588
696 -22 19 -49 42 -60 52 -11 11 -69 56 -130 101 -271 203 -541 354 -887 494
l-27 11 85 253 c47 139 87 260 89 268 2 8 29 89 60 180 31 91 58 172 60 180 2
8 83 253 179 544 97 291 175 531 173 532 -2 2 -371 111 -437 129 -41 11 -330
74 -360 78 -221 32 -246 35 -380 43 -191 13 -463 8 -610 -11 -19 -2 -57 -7
-85 -10 -246 -29 -553 -121 -790 -235 -116 -56 -315 -174 -335 -199 -3 -3 -27
-24 -55 -46 -164 -130 -308 -308 -400 -493 -210 -422 -199 -894 31 -1387 27
-59 171 -305 183 -315 4 -3 31 -39 61 -80 314 -430 857 -835 1440 -1075 67
-27 84 -38 82 -52 -2 -10 -53 -169 -114 -353 -61 -184 -128 -387 -148 -450
-48 -145 -407 -1238 -551 -1675 -198 -601 -279 -849 -279 -852 0 -2 105 -3
233 -3 l232 0 23 78 c13 42 26 84 29 92 3 8 7 20 9 25 1 6 9 30 17 55 9 25 84
261 167 525 84 264 156 484 160 488 4 4 18 3 32 -2 22 -8 217 -54 278 -65 14
-2 52 -9 85 -15 33 -6 80 -13 105 -16 25 -3 61 -8 80 -10 42 -5 124 -14 200
-20 65 -6 350 -6 435 -1 129 8 228 21 410 52 141 25 368 95 530 165 87 37 90
38 113 21 14 -9 34 -24 46 -32 11 -8 118 -87 236 -176 118 -88 269 -200 335
-249 66 -49 208 -154 315 -234 320 -238 513 -381 545 -404 63 -47 324 -258
330 -267 4 -6 205 -10 556 -10 l549 0 0 3660 c0 3479 -1 3660 -17 3661 -136 6
-1116 2 -1124 -5z m-3294 -260 c176 -19 166 -17 275 -36 88 -15 101 -17 185
-35 44 -9 83 -19 86 -21 4 -2 24 -6 45 -10 78 -12 77 -3 9 -211 -129 -387
-297 -898 -299 -908 -1 -5 -43 -134 -93 -285 -50 -151 -185 -558 -298 -905
-114 -346 -244 -741 -289 -877 l-81 -246 -83 33 c-89 36 -310 144 -407 198
-389 218 -776 555 -985 857 -13 19 -28 37 -32 38 -4 2 -8 7 -8 12 0 5 -19 37
-41 71 -89 133 -207 404 -233 533 -35 172 -39 206 -40 326 0 133 9 206 38 323
132 518 574 898 1251 1073 53 14 211 45 255 50 30 3 57 8 60 9 3 2 53 6 110
10 58 4 107 9 108 10 6 5 411 -3 467 -9z m531 -2241 c88 -37 334 -157 394
-193 19 -12 51 -30 70 -41 67 -37 265 -174 370 -255 107 -83 352 -319 432
-416 251 -304 416 -654 455 -965 9 -75 9 -252 0 -325 -28 -227 -119 -443 -265
-630 -61 -78 -206 -213 -304 -283 -123 -88 -351 -203 -512 -256 -71 -24 -140
-45 -153 -47 -12 -2 -34 -9 -48 -14 -14 -5 -25 -8 -25 -5 0 2 -15 -1 -32 -6
-53 -15 -262 -48 -356 -56 -170 -15 -597 -8 -712 11 -14 3 -74 12 -134 21
-184 28 -386 75 -392 90 -4 10 83 298 106 350 5 11 36 103 68 205 33 102 148
453 256 780 108 327 240 730 294 895 322 982 387 1175 395 1175 4 0 46 -16 93
-35z"/>
</g>
</svg>
